<?xml version="1.0" encoding="UTF-8" standalone="no"?>
<!-- Created with Inkscape (http://www.inkscape.org/) -->
<svg
   xmlns:dc="http://purl.org/dc/elements/1.1/"
   xmlns:cc="http://web.resource.org/cc/"
   xmlns:rdf="http://www.w3.org/1999/02/22-rdf-syntax-ns#"
   xmlns:svg="http://www.w3.org/2000/svg"
   xmlns="http://www.w3.org/2000/svg"
   xmlns:sodipodi="http://sodipodi.sourceforge.net/DTD/sodipodi-0.dtd"
   xmlns:inkscape="http://www.inkscape.org/namespaces/inkscape"
   width="200"
   height="200"
   id="svg5230"
   sodipodi:version="0.32"
   inkscape:version="0.45.1"
   version="1.0"
   sodipodi:docbase="/home/no/Kunden/SFB/trad-svg"
   sodipodi:docname="configure.svg"
   inkscape:output_extension="org.inkscape.output.svg.inkscape"
   inkscape:export-filename="/home/no/Kunden/SFB/eclipse-workspace/gralej/src/gralej/gui/icons/traditional/stop.png"
   inkscape:export-xdpi="9.8999996"
   inkscape:export-ydpi="9.8999996">
  <defs
     id="defs5232" />
  <sodipodi:namedview
     id="base"
     pagecolor="#ffffff"
     bordercolor="#666666"
     borderopacity="1.0"
     inkscape:pageopacity="0.0"
     inkscape:pageshadow="2"
     inkscape:zoom="0.98994949"
     inkscape:cx="216.91871"
     inkscape:cy="120.45144"
     inkscape:document-units="px"
     inkscape:current-layer="g5284"
     height="200px"
     width="200px"
     inkscape:window-width="784"
     inkscape:window-height="583"
     inkscape:window-x="0"
     inkscape:window-y="0" />
  <metadata
     id="metadata5235">
    <rdf:RDF>
      <cc:Work
         rdf:about="">
        <dc:format>image/svg+xml</dc:format>
        <dc:type
           rdf:resource="http://purl.org/dc/dcmitype/StillImage" />
      </cc:Work>
    </rdf:RDF>
  </metadata>
  <g
     inkscape:label="Ebene 1"
     inkscape:groupmode="layer"
     id="layer1">
    <g
       id="g5284"
       transform="matrix(0.8350771,0,0,0.8982123,8.9161421,22.790211)">
      <g
         id="g5289"
         transform="matrix(0.7107311,0.6540175,-0.7566485,0.7107311,128.08796,-67.579262)">
        <rect
           style="opacity:1;fill:#5f5f5f;fill-opacity:1;stroke:#020202;stroke-width:2.16700006;stroke-linecap:round;stroke-linejoin:round;stroke-miterlimit:4;stroke-dasharray:none;stroke-opacity:1"
           id="rect5280"
           width="31.31473"
           height="89.90358"
           x="84.342636"
           y="89.893379" />
        <path
           style="opacity:1;fill:#000000;fill-opacity:1;stroke:none;stroke-width:2.78693128;stroke-linecap:round;stroke-linejoin:round;stroke-miterlimit:4;stroke-dasharray:none;stroke-opacity:1"
           d="M 74.59375,25.417195 L 55.125,25.417195 C 54.4326,29.625596 54.0625,33.996929 54.0625,38.479695 C 54.062499,72.154606 74.631746,99.479695 100,99.479695 C 125.36826,99.479695 145.9375,72.154605 145.9375,38.479695 C 145.9375,33.996927 145.56741,29.625597 144.875,25.417195 L 125.40625,25.417195 L 125.40625,58.729695 L 74.59375,58.729695 L 74.59375,25.417195 z "
           id="path5278" />
        <path
           style="opacity:1;fill:#000000;fill-opacity:1;stroke:none;stroke-width:2.78693128;stroke-linecap:round;stroke-linejoin:round;stroke-miterlimit:4;stroke-dasharray:none;stroke-opacity:1"
           d="M 122.61286,223.89928 L 139.94105,223.89928 C 140.55732,220.15359 140.88673,216.26288 140.88673,212.27298 C 140.88673,182.30058 122.57904,157.97984 99.999997,157.97984 C 77.420947,157.97984 59.113267,182.30058 59.113267,212.27298 C 59.113267,216.26288 59.442657,220.15359 60.058947,223.89928 L 77.387127,223.89928 L 77.387127,194.24944 L 122.61286,194.24944 L 122.61286,223.89928 z "
           id="path5282" />
      </g>
    </g>
  </g>
</svg>
