<?xml version="1.0" encoding="UTF-8" standalone="no"?>
<!-- Created with Inkscape (http://www.inkscape.org/) -->
<svg
   xmlns:dc="http://purl.org/dc/elements/1.1/"
   xmlns:cc="http://web.resource.org/cc/"
   xmlns:rdf="http://www.w3.org/1999/02/22-rdf-syntax-ns#"
   xmlns:svg="http://www.w3.org/2000/svg"
   xmlns="http://www.w3.org/2000/svg"
   xmlns:sodipodi="http://sodipodi.sourceforge.net/DTD/sodipodi-0.dtd"
   xmlns:inkscape="http://www.inkscape.org/namespaces/inkscape"
   width="200"
   height="200"
   id="svg4129"
   sodipodi:version="0.32"
   inkscape:version="0.45.1"
   sodipodi:docbase="/home/no/Kunden/SFB/trad-svg"
   sodipodi:docname="outlet.svg"
   inkscape:output_extension="org.inkscape.output.svg.inkscape"
   version="1.0"
   inkscape:export-filename="/home/no/Kunden/SFB/eclipse-workspace/gralej/src/gralej/gui/icons/traditional/connect_no.png"
   inkscape:export-xdpi="9.8999996"
   inkscape:export-ydpi="9.8999996">
  <defs
     id="defs4131" />
  <sodipodi:namedview
     id="base"
     pagecolor="#ffffff"
     bordercolor="#666666"
     borderopacity="1.0"
     inkscape:pageopacity="0.0"
     inkscape:pageshadow="2"
     inkscape:zoom="1.4"
     inkscape:cx="174.71966"
     inkscape:cy="90.833849"
     inkscape:document-units="px"
     inkscape:current-layer="layer1"
     inkscape:window-width="784"
     inkscape:window-height="583"
     inkscape:window-x="0"
     inkscape:window-y="137"
     width="200px"
     height="200px" />
  <metadata
     id="metadata4134">
    <rdf:RDF>
      <cc:Work
         rdf:about="">
        <dc:format>image/svg+xml</dc:format>
        <dc:type
           rdf:resource="http://purl.org/dc/dcmitype/StillImage" />
      </cc:Work>
    </rdf:RDF>
  </metadata>
  <g
     inkscape:label="Ebene 1"
     inkscape:groupmode="layer"
     id="layer1"
     transform="translate(-75.792661,-233.08362)">
    <rect
       style="opacity:1;fill:#000000;fill-opacity:1;stroke:none;stroke-width:10;stroke-linecap:round;stroke-linejoin:round;stroke-miterlimit:4;stroke-dasharray:none;stroke-opacity:1"
       id="rect5201"
       width="33.57143"
       height="10.714286"
       x="182.93552"
       y="403.44077" />
    <rect
       style="opacity:1;fill:#000000;fill-opacity:1;stroke:none;stroke-width:10;stroke-linecap:round;stroke-linejoin:round;stroke-miterlimit:4;stroke-dasharray:none;stroke-opacity:1"
       id="rect5197"
       width="33.57143"
       height="10.714286"
       x="182.93552"
       y="378.08362" />
    <path
       sodipodi:type="arc"
       style="fill:#ffffff;fill-opacity:1;stroke:#000000;stroke-width:5.69999981;stroke-linecap:butt;stroke-linejoin:miter;stroke-miterlimit:0;stroke-dasharray:none;stroke-opacity:1"
       id="path2160"
       sodipodi:cx="140.71428"
       sodipodi:cy="173.07646"
       sodipodi:rx="73.571426"
       sodipodi:ry="73.571426"
       d="M 214.28571 173.07646 A 73.571426 73.571426 0 1 1  67.142853,173.07646 A 73.571426 73.571426 0 1 1  214.28571 173.07646 z"
       transform="matrix(0.6704262,0,0,0.6704262,112.35113,185.29058)" />
    <path
       sodipodi:type="arc"
       style="fill:#c0c0c0;fill-opacity:1;stroke:none;stroke-width:5.69999981;stroke-linecap:butt;stroke-linejoin:miter;stroke-miterlimit:0;stroke-dasharray:none;stroke-opacity:1"
       id="path4152"
       sodipodi:cx="140.71428"
       sodipodi:cy="173.07646"
       sodipodi:rx="73.571426"
       sodipodi:ry="73.571426"
       d="M 214.28571 173.07646 A 73.571426 73.571426 0 1 1  67.142853,173.07646 A 73.571426 73.571426 0 1 1  214.28571 173.07646 z"
       transform="matrix(0.6083935,0,0,0.6083935,121.08002,196.02699)" />
    <rect
       style="fill:#5f5f5f;fill-opacity:1;stroke:#5f5f5f;stroke-width:6.60912085;stroke-linecap:butt;stroke-linejoin:bevel;stroke-miterlimit:0.40000001;stroke-dasharray:none;stroke-opacity:1"
       id="rect4154"
       width="73.461433"
       height="15.023869"
       x="170.10973"
       y="293.81366" />
    <path
       style="fill:none;fill-rule:evenodd;stroke:#000000;stroke-width:11.76261425;stroke-linecap:round;stroke-linejoin:round;stroke-miterlimit:4;stroke-dasharray:none;stroke-opacity:1"
       d="M 151.2905,399.42228 C 146.23475,398.89091 135.2133,400.23162 127.8063,398.51059 C 126.71907,398.25796 125.63184,398.00534 124.5446,397.75272 C 114.43713,395.40423 112.42411,376.90283 110.56511,368.53363 C 108.88165,360.95478 109.26642,352.1736 105.68746,345.1086 C 103.03394,339.87047 97.788821,335.19407 92.298641,332.475 C 84.447911,328.58687 82.308641,325.83856 73.473849,326.15321 C 66.216808,326.41166 61.893844,325.99202 56.388726,323.26557 C 49.455057,319.83161 47.40796,313.19944 42.875553,307.14029 C 40.053339,303.3674 38.918753,296.08323 36.662382,291.62906 C 35.201626,288.74549 34.664669,286.87395 33.151961,283.88783"
       id="path5153" />
    <g
       id="g4137"
       transform="matrix(0.6681933,0,0,0.6681933,134.79467,233.1372)">
      <path
         transform="translate(-32.857142,-70)"
         d="M 214.28571 173.07646 A 73.571426 73.571426 0 1 1  67.142853,173.07646 A 73.571426 73.571426 0 1 1  214.28571 173.07646 z"
         sodipodi:ry="73.571426"
         sodipodi:rx="73.571426"
         sodipodi:cy="173.07646"
         sodipodi:cx="140.71428"
         id="path5161"
         style="opacity:1;fill:#ffffff;fill-opacity:1;stroke:#000000;stroke-width:5.69999981;stroke-linecap:butt;stroke-linejoin:miter;stroke-miterlimit:0;stroke-dasharray:none;stroke-opacity:1"
         sodipodi:type="arc" />
      <g
         transform="matrix(1.3030303,0,0,1.3030303,-76.893942,-124.30889)"
         id="g4107">
        <path
           sodipodi:type="arc"
           style="opacity:1;fill:#000000;fill-opacity:1;stroke:none;stroke-width:5.69999981;stroke-linecap:butt;stroke-linejoin:miter;stroke-miterlimit:0;stroke-dasharray:none;stroke-opacity:1"
           id="path3134"
           sodipodi:cx="272.14285"
           sodipodi:cy="284.50504"
           sodipodi:rx="9.2857141"
           sodipodi:ry="9.2857141"
           d="M 281.42857 284.50504 A 9.2857141 9.2857141 0 1 1  262.85714,284.50504 A 9.2857141 9.2857141 0 1 1  281.42857 284.50504 z"
           transform="translate(-104.28571,-110)" />
        <path
           sodipodi:type="arc"
           style="opacity:1;fill:#000000;fill-opacity:1;stroke:none;stroke-width:5.69999981;stroke-linecap:butt;stroke-linejoin:miter;stroke-miterlimit:0;stroke-dasharray:none;stroke-opacity:1"
           id="path4105"
           sodipodi:cx="272.14285"
           sodipodi:cy="284.50504"
           sodipodi:rx="9.2857141"
           sodipodi:ry="9.2857141"
           d="M 281.42857 284.50504 A 9.2857141 9.2857141 0 1 1  262.85714,284.50504 A 9.2857141 9.2857141 0 1 1  281.42857 284.50504 z"
           transform="translate(-156.42857,-110)" />
      </g>
    </g>
    <rect
       style="opacity:1;fill:#c0c0c0;fill-opacity:1;stroke:#000000;stroke-width:2;stroke-linecap:round;stroke-linejoin:round;stroke-miterlimit:4;stroke-dasharray:none;stroke-opacity:1"
       id="rect5193"
       width="55.714287"
       height="55"
       x="137.22124"
       y="368.08362" />
  </g>
</svg>
