<?xml version="1.0" encoding="UTF-8" standalone="no"?>
<!-- Created with Inkscape (http://www.inkscape.org/) -->
<svg
   xmlns:dc="http://purl.org/dc/elements/1.1/"
   xmlns:cc="http://web.resource.org/cc/"
   xmlns:rdf="http://www.w3.org/1999/02/22-rdf-syntax-ns#"
   xmlns:svg="http://www.w3.org/2000/svg"
   xmlns="http://www.w3.org/2000/svg"
   xmlns:sodipodi="http://sodipodi.sourceforge.net/DTD/sodipodi-0.dtd"
   xmlns:inkscape="http://www.inkscape.org/namespaces/inkscape"
   width="200"
   height="200"
   id="svg4129"
   sodipodi:version="0.32"
   inkscape:version="0.45.1"
   sodipodi:docbase="/home/no/Kunden/SFB/trad-svg"
   sodipodi:docname="connected.svg"
   inkscape:output_extension="org.inkscape.output.svg.inkscape"
   version="1.0"
   inkscape:export-filename="/home/no/Kunden/SFB/eclipse-workspace/gralej/src/gralej/gui/icons/traditional/connect_established.png"
   inkscape:export-xdpi="9.8999996"
   inkscape:export-ydpi="9.8999996">
  <defs
     id="defs4131" />
  <sodipodi:namedview
     id="base"
     pagecolor="#ffffff"
     bordercolor="#666666"
     borderopacity="1.0"
     inkscape:pageopacity="0.0"
     inkscape:pageshadow="2"
     inkscape:zoom="1.4"
     inkscape:cx="245.318"
     inkscape:cy="90.833849"
     inkscape:document-units="px"
     inkscape:current-layer="layer1"
     inkscape:window-width="784"
     inkscape:window-height="583"
     inkscape:window-x="0"
     inkscape:window-y="137"
     width="200px"
     height="200px" />
  <metadata
     id="metadata4134">
    <rdf:RDF>
      <cc:Work
         rdf:about="">
        <dc:format>image/svg+xml</dc:format>
        <dc:type
           rdf:resource="http://purl.org/dc/dcmitype/StillImage" />
      </cc:Work>
    </rdf:RDF>
  </metadata>
  <g
     inkscape:label="Ebene 1"
     inkscape:groupmode="layer"
     id="layer1"
     transform="translate(-75.792661,-233.08362)">
    <path
       sodipodi:type="arc"
       style="fill:#ffffff;fill-opacity:1;stroke:#000000;stroke-width:5.69999981;stroke-linecap:butt;stroke-linejoin:miter;stroke-miterlimit:0;stroke-dasharray:none;stroke-opacity:1"
       id="path2160"
       sodipodi:cx="140.71428"
       sodipodi:cy="173.07646"
       sodipodi:rx="73.571426"
       sodipodi:ry="73.571426"
       d="M 214.28571 173.07646 A 73.571426 73.571426 0 1 1  67.142853,173.07646 A 73.571426 73.571426 0 1 1  214.28571 173.07646 z"
       transform="matrix(0.6704262,0,0,0.6704262,112.35113,185.29058)" />
    <path
       sodipodi:type="arc"
       style="fill:#c0c0c0;fill-opacity:1;stroke:none;stroke-width:5.69999981;stroke-linecap:butt;stroke-linejoin:miter;stroke-miterlimit:0;stroke-dasharray:none;stroke-opacity:1"
       id="path4152"
       sodipodi:cx="140.71428"
       sodipodi:cy="173.07646"
       sodipodi:rx="73.571426"
       sodipodi:ry="73.571426"
       d="M 214.28571 173.07646 A 73.571426 73.571426 0 1 1  67.142853,173.07646 A 73.571426 73.571426 0 1 1  214.28571 173.07646 z"
       transform="matrix(0.6083935,0,0,0.6083935,121.08002,196.02699)" />
    <rect
       style="fill:#5f5f5f;fill-opacity:1;stroke:#5f5f5f;stroke-width:6.60912085;stroke-linecap:butt;stroke-linejoin:bevel;stroke-miterlimit:0.40000001;stroke-dasharray:none;stroke-opacity:1"
       id="rect4154"
       width="73.461433"
       height="15.023869"
       x="170.10973"
       y="293.81366" />
    <path
       style="fill:none;fill-rule:evenodd;stroke:#000000;stroke-width:11.76261425;stroke-linecap:round;stroke-linejoin:round;stroke-miterlimit:4;stroke-dasharray:none;stroke-opacity:1"
       d="M 205.62564,303.96493 C 204.91467,308.99856 205.86226,320.06075 203.87869,327.4018 C 203.58753,328.47935 203.29637,329.55691 203.00522,330.63447 C 200.29847,340.65195 181.73715,342.0052 173.30709,343.56515 C 165.67312,344.9778 156.9112,344.28074 149.72329,347.60599 C 144.39405,350.07139 139.53392,355.14675 136.62118,360.53668 C 132.45609,368.24405 129.63339,370.28415 129.63339,379.12454 C 129.63339,386.38618 129.06016,390.69147 126.13949,396.09606 C 122.46094,402.90312 115.76011,404.71287 109.54348,409.02675 C 105.67254,411.7129 98.352608,412.58751 93.820949,414.68392 C 90.887215,416.04112 88.997747,416.51113 85.959683,417.9166"
       id="path5153" />
  </g>
</svg>
